<?xml version="1.0" standalone="no"?><!DOCTYPE svg PUBLIC "-//W3C//DTD SVG 1.1//EN" "http://www.w3.org/Graphics/SVG/1.1/DTD/svg11.dtd"><svg t="1604106744162" class="icon" viewBox="0 0 1024 1024" version="1.1" xmlns="http://www.w3.org/2000/svg" p-id="3728" xmlns:xlink="http://www.w3.org/1999/xlink" width="200" height="200"><defs><style type="text/css"></style></defs><path d="M0 0h1024v1024H0z" fill="#FAECBF" p-id="3729"></path><path d="M768.853333 567.210667m-34.176 0a34.176 34.176 0 1 0 68.352 0 34.176 34.176 0 1 0-68.352 0Z" fill="#72CDED" p-id="3730"></path><path d="M768.853333 610.133333a42.666667 42.666667 0 1 1 42.666667-42.666666 42.666667 42.666667 0 0 1-42.666667 42.666666z m0-68.266666a25.6 25.6 0 1 0 25.6 25.6 25.6 25.6 0 0 0-25.6-25.898667z" fill="#650953" p-id="3731"></path><path d="M684.117333 411.989333s64.298667-26.581333 74.368 20.693334-84.992 65.365333-84.992 65.365333z" fill="#ED8772" p-id="3732"></path><path d="M673.536 506.581333a8.533333 8.533333 0 0 1-8.533333-9.6l10.624-86.058666a8.533333 8.533333 0 0 1 5.205333-6.826667c1.578667-0.64 39.381333-16 65.024-2.517333a41.045333 41.045333 0 0 1 20.949333 29.354666 39.722667 39.722667 0 0 1-6.186666 31.402667c-20.906667 31.488-82.944 43.562667-85.546667 44.074667a6.869333 6.869333 0 0 1-1.536 0.170666zM691.968 418.133333l-8.533333 68.778667c20.010667-5.333333 51.541333-16.853333 62.976-34.133333a23.296 23.296 0 0 0 3.712-18.432 24.405333 24.405333 0 0 0-11.989334-17.664c-13.44-7.082667-34.858667-2.261333-46.165333 1.450666z" fill="#650953" p-id="3733"></path><path d="M651.221333 552.234667h-1.066666a140.544 140.544 0 1 0-195.242667-17.877334 103.808 103.808 0 0 0-27.050667 17.450667s-10.88-16.597333-41.728-13.738667-39.978667 33.706667-39.978666 33.706667-36.565333-10.837333-47.445334 23.424 30.293333 53.162667 30.293334 53.162667c-8.533333 9.130667-7.424 31.402667 11.989333 46.933333S388.266667 708.266667 388.266667 708.266667c13.141333 13.696 71.381333 49.109333 135.253333 54.826666s161.408-29.866667 169.813333-99.968c8.917333-73.258667-42.112-110.890667-42.112-110.890666z" fill="#E7DF56" p-id="3734"></path><path d="M537.344 772.266667c-4.906667 0-9.728 0-14.421333-0.64-62.805333-5.589333-119.765333-38.784-137.770667-54.698667-9.045333 0-32-1.237333-49.450667-15.104a51.498667 51.498667 0 0 1-20.224-35.669333 35.968 35.968 0 0 1 1.834667-14.549334c-16.213333-10.282667-35.541333-31.146667-26.709333-59.008 9.045333-28.586667 33.706667-32.853333 50.346666-30.634666a54.741333 54.741333 0 0 1 44.416-32.426667c22.186667-2.048 35.754667 4.949333 43.008 10.709333a123.221333 123.221333 0 0 1 13.312-8.917333 149.034667 149.034667 0 1 1 221.866667 20.48 131.669333 131.669333 0 0 1 38.4 112.384c-4.266667 34.432-28.544 64.64-68.736 85.034667a221.354667 221.354667 0 0 1-95.872 23.04zM388.266667 699.733333a8.533333 8.533333 0 0 1 6.186666 2.602667c12.117333 12.8 68.565333 46.933333 129.877334 52.266667 60.330667 5.418667 152.874667-27.946667 160.597333-92.501334 7.296-61.056-29.312-95.061333-37.418667-101.76a8.533333 8.533333 0 0 1-2.858666-14.805333 132.010667 132.010667 0 1 0-183.466667-16.810667 8.533333 8.533333 0 0 1-3.242667 13.44 95.274667 95.274667 0 0 0-24.533333 15.829334 8.533333 8.533333 0 0 1-12.8-1.621334c-0.256-0.341333-9.002667-12.16-33.749333-9.856s-32.298667 26.624-32.64 27.648a8.533333 8.533333 0 0 1-10.581334 5.717334c-2.901333-0.810667-28.842667-7.466667-36.864 17.834666-8.533333 26.752 25.344 42.666667 25.6 42.666667a8.533333 8.533333 0 0 1 2.688 13.610667 14.677333 14.677333 0 0 0-2.730666 10.752 34.474667 34.474667 0 0 0 13.824 23.552C362.666667 701.44 387.498667 699.733333 387.754667 699.733333z" fill="#6C0C5B" p-id="3735"></path><path d="M643.285333 265.088c-14.464-15.488-76.544-73.984-160.042666-37.717333-81.792 35.541333-91.861333 107.648-93.056 128-5.205333 2.346667-10.453333 4.778667-15.786667 7.253333L415.488 435.2s129.237333-75.904 246.826667-90.88V261.802667s-6.314667 0.682667-19.029334 3.285333z" fill="#EE719B" p-id="3736"></path><path d="M415.488 443.733333a7.722667 7.722667 0 0 1-2.218667-0.298666 8.533333 8.533333 0 0 1-5.248-4.266667L366.933333 366.677333a8.533333 8.533333 0 0 1 3.84-11.946666l11.264-5.205334c2.730667-27.050667 17.664-95.189333 97.749334-129.962666 83.669333-36.352 147.754667 17.749333 166.4 36.224 9.941333-1.877333 15.018667-2.474667 15.274666-2.474667a8.533333 8.533333 0 0 1 9.429334 8.533333v82.517334a8.533333 8.533333 0 0 1-7.466667 8.533333c-114.517333 14.634667-242.304 89.045333-243.584 89.6a8.533333 8.533333 0 0 1-4.352 1.237333z m-29.098667-77.397333l32.298667 57.258667c28.885333-16.128 134.229333-71.765333 235.093333-86.698667V271.744c-2.474667 0.426667-5.376 0.981333-8.789333 1.706667a8.533333 8.533333 0 0 1-7.978667-2.56c-15.701333-17.066667-73.088-69.248-150.4-35.669334s-86.741333 100.693333-87.893333 120.490667a8.533333 8.533333 0 0 1-4.992 7.296z" fill="#650953" p-id="3737"></path><path d="M643.285333 265.088c-34.901333 7.125333-118.101333 28.629333-253.098666 90.112" fill="#EE719B" p-id="3738"></path><path d="M390.186667 363.776a8.533333 8.533333 0 0 1-3.541334-16.341333C520.533333 286.464 603.861333 264.533333 641.578667 256.725333a8.533333 8.533333 0 0 1 10.069333 6.656 8.533333 8.533333 0 0 1-6.656 10.069334c-36.992 7.552-118.826667 29.226667-251.264 89.6a8.533333 8.533333 0 0 1-3.541333 0.725333z" fill="#650953" p-id="3739"></path><path d="M625.066667 399.957333c-12.8 0-23.125333 16.768-23.125334 37.418667a54.442667 54.442667 0 0 0 4.266667 21.717333l17.365333-3.157333-8.533333 15.232a16.426667 16.426667 0 0 0 9.941333 3.669333c12.8 0 23.168-16.768 23.168-37.461333s-10.282667-37.418667-23.082666-37.418667z" fill="#740E62" p-id="3740"></path><path d="M329.002667 648.234667c21.333333 8.021333 73.386667 5.76 73.386666 5.76" fill="#E7DF56" p-id="3741"></path><path d="M385.706667 658.56c-17.408 0-43.946667-0.981333-58.197334-6.357333a4.266667 4.266667 0 0 1-2.517333-5.461334 4.266667 4.266667 0 0 1 5.504-2.517333c20.352 7.637333 71.168 5.504 71.68 5.504a4.266667 4.266667 0 1 1 0.384 8.533333c-0.768 0-7.466667 0.298667-16.853333 0.298667zM542.677333 675.114667a156.757333 156.757333 0 0 1-38.4-4.522667c-11.093333-2.858667-24.874667-8.192-27.733333-17.408-2.005333-6.442667-1.322667-11.392 2.048-14.677333 6.570667-6.357333 20.053333-2.176 22.698667-1.28a4.266667 4.266667 0 0 1 2.645333 5.376 4.266667 4.266667 0 0 1-5.418667 2.688c-5.12-1.749333-12.117333-2.432-13.952-0.64-0.853333 0.810667-0.810667 3.072 0 6.016s7.210667 7.936 21.717334 11.690666c31.402667 8.149333 77.482667 5.290667 97.109333-13.525333 7.466667-7.125333 11.050667-14.165333 10.666667-20.906667a23.04 23.04 0 0 0-7.978667-14.890666 4.266667 4.266667 0 0 1 5.162667-6.784 31.018667 31.018667 0 0 1 11.306666 21.333333c0.554667 9.344-3.925333 18.602667-13.226666 27.52-15.317333 14.762667-41.856 20.010667-66.645334 20.010667z" fill="#6C0C5B" p-id="3742"></path><path d="M489.813333 643.626667a4.266667 4.266667 0 0 1-3.626666-2.048 10.496 10.496 0 0 1-0.896-11.648c5.717333-9.514667 29.397333-8.533333 36.522666-7.978667a4.266667 4.266667 0 1 1-0.64 8.533333c-11.861333-0.853333-26.538667 0.512-28.586666 3.925334-0.384 0.64 0.512 2.261333 0.810666 2.730666a4.266667 4.266667 0 0 1-1.365333 5.888 4.266667 4.266667 0 0 1-2.218667 0.597334z" fill="#6C0C5B" p-id="3743"></path><path d="M279.722667 465.322667m-67.712 0a67.712 67.712 0 1 0 135.424 0 67.712 67.712 0 1 0-135.424 0Z" fill="#72CDED" p-id="3744"></path><path d="M279.722667 541.568a76.245333 76.245333 0 1 1 76.245333-76.245333 76.330667 76.330667 0 0 1-76.245333 76.245333z m0-135.424a59.178667 59.178667 0 1 0 59.178666 59.178667 59.264 59.264 0 0 0-59.178666-59.178667z" fill="#650953" p-id="3745"></path><path d="M212.010667 681.429333c51.584 0 51.584 46.933333 103.168 46.933334s51.584-46.933333 103.168-46.933334 51.541333 46.933333 103.125333 46.933334 51.584-46.933333 103.168-46.933334 51.584 46.933333 103.168 46.933334 51.584-46.933333 103.168-46.933334v140.8H212.010667z" fill="#72CDED" p-id="3746"></path><path d="M830.976 830.976H212.010667a8.533333 8.533333 0 0 1-8.533334-8.533333v-140.8a8.533333 8.533333 0 0 1 8.533334-8.533334c29.098667 0 44.074667 13.610667 57.344 25.6 12.501333 11.349333 23.338667 21.333333 45.824 21.333334s33.322667-9.856 45.824-21.333334c13.226667-12.032 28.245333-25.6 57.344-25.6s44.074667 13.610667 57.301333 25.6c12.501333 11.349333 23.338667 21.333333 45.824 21.333334s33.322667-9.856 45.824-21.333334c13.269333-12.032 28.245333-25.6 57.344-25.6s44.074667 13.610667 57.301333 25.6c12.544 11.349333 23.381333 21.333333 45.866667 21.333334s33.322667-9.856 45.824-21.333334c13.226667-12.032 28.245333-25.6 57.344-25.6a8.533333 8.533333 0 0 1 8.533333 8.533334v140.8a8.533333 8.533333 0 0 1-8.533333 8.533333z m-610.432-17.066667h601.898667v-123.392c-17.066667 2.176-26.496 10.837333-37.333334 20.650667-13.226667 12.032-28.245333 25.6-57.301333 25.6s-44.074667-13.610667-57.344-25.6c-12.501333-11.349333-23.338667-21.333333-45.824-21.333333s-33.322667 9.856-45.866667 21.333333c-13.226667 12.032-28.202667 25.6-57.301333 25.6s-44.074667-13.610667-57.301333-25.6c-12.544-11.349333-23.338667-21.333333-45.824-21.333333s-33.322667 9.856-45.866667 21.333333c-13.226667 12.032-28.202667 25.6-57.301333 25.6s-44.074667-13.610667-57.301334-25.6c-10.837333-9.813333-20.394667-18.474667-37.333333-20.650667z" fill="#650953" p-id="3747"></path></svg>