<?xml version="1.0" standalone="no"?><!DOCTYPE svg PUBLIC "-//W3C//DTD SVG 1.1//EN" "http://www.w3.org/Graphics/SVG/1.1/DTD/svg11.dtd"><svg class="icon" width="200px" height="200.00px" viewBox="0 0 1024 1024" version="1.1" xmlns="http://www.w3.org/2000/svg"><path fill="#000000" d="M950.4 489.6l-128-128c0 0 0 0 0 0l-288-288c-12.8-12.8-32-12.8-44.8 0l-288 288c0 0 0 0 0 0l-128 128c-12.8 12.8-12.8 32 0 44.8s32 12.8 44.8 0L192 460.8 192 896c0 35.2 28.8 64 64 64l512 0c35.2 0 64-28.8 64-64L832 460.8l73.6 73.6c6.4 6.4 16 9.6 22.4 9.6s16-3.2 22.4-9.6C963.2 521.6 963.2 502.4 950.4 489.6zM768 896 256 896 256 396.8l256-256 256 256L768 896zM502.4 457.6c-41.6-41.6-112-41.6-153.6 0-41.6 41.6-41.6 112 0 153.6 44.8 44.8 140.8 147.2 140.8 147.2 6.4 6.4 16 9.6 22.4 9.6s16-3.2 22.4-9.6c0 0 96-102.4 140.8-147.2 41.6-41.6 41.6-112 0-153.6-41.6-41.6-112-41.6-153.6 0L512 467.2 502.4 457.6zM534.4 534.4l32-32c19.2-19.2 44.8-19.2 64 0 16 16 16 44.8 0 64-28.8 32-86.4 89.6-118.4 121.6-32-32-89.6-92.8-118.4-121.6-16-19.2-19.2-48 0-64 9.6-9.6 19.2-12.8 32-12.8s22.4 3.2 32 12.8l32 32C502.4 547.2 521.6 547.2 534.4 534.4z" /></svg>