<?xml version="1.0" standalone="no"?><!DOCTYPE svg PUBLIC "-//W3C//DTD SVG 1.1//EN" "http://www.w3.org/Graphics/SVG/1.1/DTD/svg11.dtd"><svg t="1604133046257" class="icon" viewBox="0 0 1024 1024" version="1.1" xmlns="http://www.w3.org/2000/svg" p-id="4029" xmlns:xlink="http://www.w3.org/1999/xlink" width="200" height="200"><defs><style type="text/css"></style></defs><path d="M794.88 88.021333a42.666667 42.666667 0 0 1 12.885333 67.84v-0.042666L619.52 344.192a21.333333 21.333333 0 0 0-2.474667 27.221333l2.474667 2.986667 30.165333 30.122667a21.333333 21.333333 0 0 0 27.221334 2.474666l2.944-2.474666 184.021333-184.021334a42.581333 42.581333 0 0 1 72.405333 9.173334l-2.858666-5.333334a341.504 341.504 0 0 1-432.128 479.445334l-230.613334 230.570666a42.666667 42.666667 0 0 1-60.330666 0L89.6 813.696a42.666667 42.666667 0 0 1 0-60.330667l230.570667-230.613333A341.461333 341.461333 0 0 1 794.88 88.021333zM460.842667 201.386667l-7.296 7.04a256.085333 256.085333 0 0 0-27.690667 329.386666l-60.970667 60.970667v-0.042667l-184.746666 184.746667 60.330666 60.330667 241.365334-241.322667 4.352-4.352a256.085333 256.085333 0 0 0 397.226666-269.013333l-1.536-5.973334-141.738666 141.738667-5.632 5.12-2.986667 2.474667-6.058667 4.693333a106.666667 106.666667 0 0 1-130.816-7.253333l-5.333333-5.034667-30.208-30.208-5.12-5.589333-2.474667-2.986667-4.693333-6.101333a106.666667 106.666667 0 0 1 7.253333-130.773334l5.034667-5.376 141.738667-141.738666-5.973334-1.536a256.256 256.256 0 0 0-234.026666 60.8z" p-id="4030" fill="#fcee09"></path></svg>