<?xml version="1.0" standalone="no"?><!DOCTYPE svg PUBLIC "-//W3C//DTD SVG 1.1//EN" "http://www.w3.org/Graphics/SVG/1.1/DTD/svg11.dtd"><svg class="icon" width="200px" height="200.00px" viewBox="0 0 1024 1024" version="1.1" xmlns="http://www.w3.org/2000/svg"><path fill="#000000" d="M847.5 960h-640c-52.9 0-96-43.1-96-96v-97h64v97c0 17.6 14.4 32 32 32h640c17.6 0 32-14.4 32-32V160c0-17.6-14.4-32-32-32h-640c-17.6 0-32 14.4-32 32v95.1h-64V160c0-52.9 43.1-96 96-96h640c52.9 0 96 43.1 96 96v704c0 52.9-43.1 96-96 96z"  /><path fill="#000000" d="M112.5 384h64v256h-64zM80.5 288h128v64h-128zM80.5 672h128v64h-128zM352 224c-17.7 0-32 14.3-32 32s14.3 32 32 32 32-14.3 32-32-14.3-32-32-32zM416 368c0 35.3-128 35.3-128 0s28.7-70.7 64-70.7 64 35.4 64 70.7zM796.8 352H483.2c-1.8 0-3.2-1.4-3.2-3.2v-57.6c0-1.8 1.4-3.2 3.2-3.2h313.6c1.8 0 3.2 1.4 3.2 3.2v57.6c0 1.8-1.4 3.2-3.2 3.2zM352 435c-17.7 0-32 14.3-32 32s14.3 32 32 32 32-14.3 32-32-14.3-32-32-32zM416 579c0 35.3-128 35.3-128 0s28.7-70.7 64-70.7 64 35.4 64 70.7zM796.8 563H483.2c-1.8 0-3.2-1.4-3.2-3.2v-57.6c0-1.8 1.4-3.2 3.2-3.2h313.6c1.8 0 3.2 1.4 3.2 3.2v57.6c0 1.8-1.4 3.2-3.2 3.2zM352 628c-17.7 0-32 14.3-32 32s14.3 32 32 32 32-14.3 32-32-14.3-32-32-32zM416 772c0 35.3-128 35.3-128 0s28.7-70.7 64-70.7 64 35.4 64 70.7zM796.8 756H483.2c-1.8 0-3.2-1.4-3.2-3.2v-57.6c0-1.8 1.4-3.2 3.2-3.2h313.6c1.8 0 3.2 1.4 3.2 3.2v57.6c0 1.8-1.4 3.2-3.2 3.2z"  /></svg>