<?xml version="1.0" standalone="no"?><!DOCTYPE svg PUBLIC "-//W3C//DTD SVG 1.1//EN" "http://www.w3.org/Graphics/SVG/1.1/DTD/svg11.dtd"><svg class="icon" width="200px" height="200.00px" viewBox="0 0 1024 1024" version="1.1" xmlns="http://www.w3.org/2000/svg"><path fill="#fcee09" d="M832 544h-32v-96H160v304a208 208 0 0 0 208 208h224a208 208 0 0 0 160-80h80a112 112 0 0 0 112-112v-112a112 112 0 0 0-112-112zM592 896H368a144 144 0 0 1-144-144V512h512v240a144 144 0 0 1-144 144z m288-128a48 48 0 0 1-48 48h-48a208 208 0 0 0 16-64v-144h32a48 48 0 0 1 48 48z"  /><path fill="#fcee09" d="M608 576h64v176h-64zM480 656h64v96h-64zM464 240h16a32 32 0 0 1 0 32h-32v48h64l48-64a96 96 0 0 0-16-64l-48-32h-32a32 32 0 0 1 0-32h48V80h-64l-32 64a96 96 0 0 0 16 64zM256 288h16a32 32 0 0 1 0 16h-32v32h48l32-48a64 64 0 0 0 0-48l-32-32h-32a32 32 0 0 1 0-16h32v-32h-48l-32 48a64 64 0 0 0 0 48zM672 288h16a32 32 0 0 1 0 16h-32v32h48l32-48a64 64 0 0 0 0-48l-32-32h-16a32 32 0 0 1 0-16h32v-32h-48l-32 48a64 64 0 0 0 0 48z"  /></svg>